<?xml version="1.0" encoding="utf-8"?>
<!-- Generator: Adobe Illustrator 24.0.2, SVG Export Plug-In . SVG Version: 6.00 Build 0)  -->
<svg version="1.1" id="Layer_1" xmlns="http://www.w3.org/2000/svg" xmlns:xlink="http://www.w3.org/1999/xlink" x="0px" y="0px"
	 viewBox="0 0 960.2 99.5" style="enable-background:new 0 0 960.2 99.5;" xml:space="preserve">
<style type="text/css">
	.st0{fill-rule:evenodd;clip-rule:evenodd;fill:url(#SVGID_1_);}
	.st1{fill:#FFFFFF;}
	.st2{fill:#00AAAB;}
</style>
<g>
	
		<linearGradient id="SVGID_1_" gradientUnits="userSpaceOnUse" x1="108.5146" y1="32.3173" x2="108.5146" y2="122.3586" gradientTransform="matrix(0.9788 0.2047 -0.2047 0.9788 23.4792 -29.6705)">
		<stop  offset="0.1379" style="stop-color:#00AAAB"/>
		<stop  offset="0.2256" style="stop-color:#21ADAE"/>
		<stop  offset="0.3677" style="stop-color:#50B5B6"/>
		<stop  offset="0.5464" style="stop-color:#7EC2C4"/>
		<stop  offset="0.7548" style="stop-color:#B4D9DA"/>
		<stop  offset="0.9856" style="stop-color:#F8FBFB"/>
		<stop  offset="0.9988" style="stop-color:#FFFFFF"/>
		<stop  offset="1" style="stop-color:#D4E7E8"/>
	</linearGradient>
	<path class="st0" d="M105.3,35.6l-0.6,1.2l-0.6,1.2l0.7,1.1l0,0l0.7,1.1l1.3,0l1.4,0l0.6-1.2l0.6-1.2l-0.7-1.2l-0.7-1.1l-1.3,0l0,0
		L105.3,35.6L105.3,35.6z M96.7,99.5l-0.6-0.9l0,0l-1.3,0l-1.3,0L93,99.5 M97.9,90.4l-0.6,1.2l-0.6,1.2l0.7,1.1L98,95l1.3,0l1.3,0
		l0.6-1.2l0.6-1.2l-0.7-1.1l-0.7-1.1l-1.3,0L97.9,90.4L97.9,90.4z M91.1,90.6l-1.3,0l0,0l-1.3,0l-0.6,1.2l-0.6,1.2l0.7,1.1l0,0
		l0.7,1.1l1.3,0l0,0l1.3,0l0.6-1.2l0.6-1.2l-0.7-1.1l0,0L91.1,90.6L91.1,90.6z M101.3,99.5l0.2-0.4l0.6-1.2l-0.7-1.1l0,0l-0.7-1.1
		l-1.3,0l-1.3,0L97.4,97l-0.6,1.2l0.7,1.1l0.1,0.2 M119.9,99.5l0.5-1l0.6-1.2l-0.7-1.1l-0.7-1.1l-1.3,0.1l-1.3,0l0,0l-0.6,1.2
		l-0.6,1.2l0.7,1.1l0,0l0.5,0.8 M125.6,94.4l-0.7-1.2l-0.7-1.1l-1.3,0.1l0,0l-1.3,0l-0.6,1.2l-0.6,1.2l0.7,1.1l0.7,1.1l1.3,0l0,0
		l1.3-0.1l0.6-1.2L125.6,94.4L125.6,94.4z M125.6,99.5l-0.5-0.8l0,0l-0.7-1.1l-1.3,0l0,0l-1.3,0l0,0l-0.6,1.2l-0.3,0.6 M119.4,89.6
		l-1.3,0.1l0,0l-1.3,0l-0.6,1.2l-0.6,1.2l0.7,1.1l0,0l0.7,1.1l1.3,0l1.4-0.1l0.6-1.2l0.6-1.2l-0.7-1.1l0,0L119.4,89.6L119.4,89.6z
		 M113.8,65.3l-1.3,0l0,0l-1.3,0l-0.6,1.2l-0.6,1.2l0.7,1.1l0,0l0.7,1.1l1.3,0l0,0l1.3,0l0.6-1.2l0.6-1.2l-0.7-1.1l0,0L113.8,65.3
		L113.8,65.3z M118.6,67.1l0.6-1.2l0.6-1.2l-0.7-1.1l0,0l-0.7-1.1l-1.3,0l-1.3,0l-0.6,1.2l-0.6,1.2l0.7,1.1l0,0l0.7,1.1l1.3,0l0,0
		L118.6,67.1L118.6,67.1z M113.6,59.1l0.6-1.2l0.6-1.2l-0.7-1.1l0,0l-0.7-1.1l-1.3,0l-1.3,0l-0.6,1.2l-0.6,1.2l0.7,1.1l0.7,1.1
		l1.3,0l0,0L113.6,59.1L113.6,59.1z M134,34.9l-1.3,0l-1.3,0l-0.6,1.2l-0.6,1.2l0.7,1.1l0.7,1.1l1.3-0.1l1.3,0l0.6-1.2l0.6-1.2
		l-0.7-1.1L134,34.9L134,34.9z M135.2,99.5l-0.7-1.1l-0.7-1.1l0,0l-1.3,0l-1.3,0l-0.6,1.2l-0.5,1 M116,99.5l-0.3-0.4l0,0l-0.7-1.1
		l0,0l-1.3,0l-1.3,0l-0.6,1.2l-0.2,0.3 M106.4,99.6l-0.1-0.2l-0.7-1.1l0,0l-1.3,0l-1.3,0l-0.6,1.2 M87.1,99.5L86.7,99l0,0l-1.3,0
		L84,99l-0.2,0.5 M135.6,89l-0.6,1.2l-0.6,1.2l0.7,1.1l0.7,1.1l1.3-0.1l1.3,0l0.6-1.2l0.6-1.2l-0.7-1.1l-0.7-1.1l-1.3,0L135.6,89
		L135.6,89z M126.1,89.4l-0.6,1.2l-0.6,1.2l0.7,1.1l0.7,1.1l1.3,0l1.3,0l0.6-1.2l0.6-1.2l-0.7-1.1l-0.7-1.1l-1.3,0L126.1,89.4
		L126.1,89.4z M107.3,90l-0.6,1.2l-0.6,1.2l0.7,1.1l0.7,1.1l1.3,0l1.3,0l0.6-1.2l0.6-1.2l-0.7-1.1l-0.7-1.1l-1.3,0.1L107.3,90
		L107.3,90z M130.6,81l-0.6,1.2l-0.6,1.2l0.7,1.1l0.7,1.1l1.3,0l1.3,0l0.6-1.2l0.6-1.2l-0.7-1.1l-0.7-1.1l-1.3,0L130.6,81L130.6,81z
		 M121.1,81.4l-0.6,1.2l-0.6,1.2l0.7,1.1l0.7,1.1l1.3-0.1l1.3,0l0.6-1.2l0.6-1.2l-0.7-1.1l-0.7-1.1l-1.3,0L121.1,81.4L121.1,81.4z
		 M111.7,81.7l-0.6,1.2l-0.6,1.2l0.7,1.1l0.7,1.1l1.3,0l1.3,0l0.6-1.2l0.6-1.2l-0.7-1.1l-0.7-1.1l-1.3,0L111.7,81.7L111.7,81.7z
		 M102.3,82l-0.6,1.2l-0.6,1.2l0.7,1.1l0.7,1.1l1.3,0l1.3,0l0.6-1.2l0.6-1.2l-0.7-1.1L105,82l-1.3,0L102.3,82L102.3,82z M92.9,82.4
		l-0.6,1.2l-0.6,1.2l0.7,1.1L93,87l1.3,0l1.3,0l0.6-1.2l0.6-1.2l-0.7-1.1l-0.7-1.1l-1.3,0L92.9,82.4L92.9,82.4z M135,72.7l-0.6,1.2
		l-0.6,1.2l0.7,1.1l0.7,1.1l1.3,0l1.3,0l0.6-1.2l0.6-1.2l-0.7-1.1l-0.7-1.1l-1.3,0L135,72.7L135,72.7z M125.6,73l-0.6,1.2l-0.6,1.2
		l0.7,1.1l0.7,1.1l1.3,0l1.3,0l0.6-1.2l0.6-1.2l-0.7-1.1l-0.7-1.1l-1.3,0L125.6,73L125.6,73z M116.1,73.4l-0.6,1.2l-0.6,1.2l0.7,1.1
		l0.7,1.1l1.3,0l1.3,0l0.6-1.2l0.6-1.2l-0.7-1.1l-0.7-1.1l-1.3,0L116.1,73.4L116.1,73.4z M106.7,73.7l-0.6,1.2l-0.6,1.2l0.7,1.1
		l0.7,1.1l1.3-0.1l1.3,0l0.6-1.2l0.6-1.2l-0.7-1.1l-0.7-1.1l-1.3,0L106.7,73.7L106.7,73.7z M97.3,74.1l-0.6,1.2L96,76.4l0.7,1.1
		l0.7,1.1l1.3,0l1.3,0l0.6-1.2l0.6-1.2l-0.7-1.1L100,74l-1.3,0L97.3,74.1L97.3,74.1z M139.4,64.4l-0.6,1.2l-0.6,1.2l0.7,1.1l0.7,1.1
		l1.3,0l1.3,0l0.6-1.2l0.6-1.2l-0.7-1.1l-0.7-1.1l-1.3,0.1L139.4,64.4L139.4,64.4z M132.7,64.6l-1.3,0l-1.3,0l-0.6,1.2l-0.6,1.2
		l0.7,1.1l0.7,1.1l1.3,0l1.3,0l0.6-1.2l0.6-1.2l-0.7-1.1L132.7,64.6L132.7,64.6z M123.2,64.9l-1.3,0.1l-1.3,0l-0.6,1.2l-0.6,1.2
		l0.7,1.1l0.7,1.1l1.3,0l1.3,0l0.6-1.2l0.6-1.2l-0.7-1.1L123.2,64.9L123.2,64.9z M104.4,65.6l-1.3,0l-1.3,0l-0.6,1.2l-0.6,1.2
		l0.7,1.1l0.7,1.1l1.3,0l1.3,0l0.6-1.2l0.6-1.2l-0.7-1.1L104.4,65.6L104.4,65.6z M137.1,56.3l-1.3,0l-1.3,0l-0.6,1.2l-0.6,1.2
		l0.7,1.1l0.7,1.1l1.3,0l1.3,0l0.6-1.2l0.6-1.2l-0.7-1.1L137.1,56.3L137.1,56.3z M127.6,56.6l-1.3,0l-1.3,0l-0.6,1.2l-0.6,1.2
		l0.7,1.1l0.7,1.1l1.3,0l1.3,0l0.6-1.2l0.6-1.2l-0.7-1.1L127.6,56.6L127.6,56.6z M118.2,57l-1.3,0l-1.3,0l-0.6,1.2l-0.6,1.2l0.7,1.1
		l0.7,1.1l1.3,0l1.3,0l0.6-1.2l0.6-1.2l-0.7-1.1L118.2,57L118.2,57z M108.8,57.3l-1.3,0l-1.3,0l-0.6,1.2l-0.6,1.2l0.7,1.1l0.7,1.1
		l1.3,0l1.3,0l0.6-1.2l0.6-1.2l-0.7-1.1L108.8,57.3L108.8,57.3z M132.1,48.3l-1.3,0l-1.3,0l-0.6,1.2l-0.6,1.2l0.7,1.1l0.7,1.1l1.3,0
		l1.3,0l0.6-1.2l0.6-1.2l-0.7-1.1L132.1,48.3L132.1,48.3z M122.6,48.6l-1.3,0l-1.3,0l-0.6,1.2l-0.6,1.2l0.7,1.1l0.7,1.1l1.3,0l1.3,0
		l0.6-1.2l0.6-1.2l-0.7-1.1L122.6,48.6L122.6,48.6z M113.2,49l-1.3,0l-1.3,0l-0.6,1.2l-0.6,1.2l0.7,1.1l0.7,1.1l1.3,0l1.3,0l0.6-1.2
		l0.6-1.2l-0.7-1.1L113.2,49L113.2,49z M127.9,38.8l-1.3,0l-1.3,0l-0.6,1.1l0,0.1l-0.1,0.1l-0.6,1.1l0.7,1.1l0.7,1.1l1.3,0l1.3,0
		l0.6-1.1l0.1-0.1l0-0.1l0.6-1.1l-0.7-1.1L127.9,38.8L127.9,38.8z M117.6,40.6l-1.3,0l-1.3,0l-0.6,1.2l-0.6,1.2l0.7,1.1l0.7,1.1
		l1.3,0l1.3,0l0.6-1.2l0.6-1.2l-0.7-1.1L117.6,40.6L117.6,40.6z M138.5,94.4l-1.3,0l-1.3,0l-0.6,1.2l-0.6,1.2l0.7,1.1l0.7,1.1l1.3,0
		l0,0l1.3,0l0.6-1.2l0.6-1.2l-0.7-1.1L138.5,94.4L138.5,94.4z M129,94.7l-1.3,0l-1.3,0l-0.6,1.2l-0.6,1.2l0.7,1.1l0,0l0.7,1.1l1.3,0
		l0,0l1.3,0l0.6-1.2l0.6-1.2l-0.7-1.1l0,0L129,94.7L129,94.7z M110.6,99.5l0.4-0.7l0.6-1.2l-0.7-1.1l0,0l-0.7-1.1l0,0l-1.3,0l-1.3,0
		l-0.6,1.2l-0.6,1.2l0.7,1.1l0.3,0.5 M92.1,99.5l0.6-1.2L92,97.2l0,0l-0.7-1.1l-1.3,0l0,0l-1.3,0l0,0L88,97.3l-0.6,1.2l0.6,1
		 M82.8,99.5l0.5-0.9l-0.7-1.1l0,0l-0.7-1.1l0,0l-1.3,0l-1.3,0l-0.6,1.2l-0.6,1.2l0.4,0.6 M145.3,84.7l-1.3,0.1l-1.3,0L142,86
		l-0.6,1.2l0.7,1.1l0.7,1.1l1.3,0l1.3,0l0.6-1.2l0.6-1.2l-0.7-1.1L145.3,84.7L145.3,84.7z M133.4,86.4l-1.3,0l-1.3,0l-0.6,1.2
		l-0.6,1.2l0.7,1.1l0.7,1.1l1.3,0l0,0l1.3,0l0.6-1.2l0.6-1.2l-0.7-1.1l0,0L133.4,86.4L133.4,86.4z M124,86.7l-1.3,0l-1.3,0l-0.6,1.2
		l-0.6,1.2l0.7,1.1l0,0l0.7,1.1l1.3,0l0,0l1.3,0l0.6-1.2l0.6-1.2l-0.7-1.1l0,0L124,86.7L124,86.7z M114.6,87.1l-1.3,0l-1.3,0
		l-0.6,1.2l-0.6,1.2l0.7,1.1l0.7,1.1l1.3,0l0,0l1.3,0l0.6-1.2l0.6-1.2l-0.7-1.1l0,0L114.6,87.1L114.6,87.1z M105.2,87.4l-1.3,0
		l-1.3,0l-0.6,1.2l-0.6,1.2l0.7,1.1l0.7,1.1l1.3,0l0,0l1.3,0l0.6-1.2l0.6-1.2l-0.7-1.1l0,0L105.2,87.4L105.2,87.4z M95.7,87.7
		l-1.3,0l-1.3,0L92.4,89l-0.6,1.2l0.7,1.1l0,0l0.7,1.1l1.3,0l0,0l1.3,0l0.6-1.2l0.6-1.2l-0.7-1.1l0,0L95.7,87.7L95.7,87.7z
		 M86.3,88.1l-1.3,0l-1.3,0L83,89.4l-0.6,1.2l0.7,1.1l0.7,1.1l1.3,0l0,0l1.3,0l0.6-1.2l0.6-1.2L87,89.2l0,0L86.3,88.1L86.3,88.1z
		 M141.7,78.3l-1.3,0l-1.3,0l-0.6,1.2l-0.6,1.2l0.7,1.1l0.7,1.1l1.3-0.1l1.3,0l0.6-1.2l0.6-1.2l-0.7-1.1L141.7,78.3L141.7,78.3z
		 M128.4,78.4l-1.3,0l-1.3,0.1l-0.6,1.2l-0.6,1.2l0.7,1.1l0.7,1.1l1.3-0.1l0,0l1.3,0l0.6-1.2l0.6-1.2l-0.7-1.1l0,0L128.4,78.4
		L128.4,78.4z M119,78.7l-1.3,0l-1.3,0l-0.6,1.2l-0.6,1.2l0.7,1.1l0.7,1.1l1.3,0l0,0l1.3,0l0.6-1.2l0.6-1.2l-0.7-1.1l0,0L119,78.7
		L119,78.7z M109.6,79.1l-1.3,0l-1.3,0l-0.6,1.2l-0.6,1.2l0.7,1.1l0.7,1.1l1.3,0l0,0l1.3,0l0.6-1.2l0.6-1.2l-0.7-1.1l0,0L109.6,79.1
		L109.6,79.1z M100.2,79.4l-1.3,0l-1.3,0l-0.6,1.2l-0.6,1.2l0.7,1.1l0.7,1.1l1.3,0l0,0l1.3,0l0.6-1.2l0.6-1.2l-0.7-1.1l0,0
		L100.2,79.4L100.2,79.4z M90.7,79.7l-1.3,0l-1.3,0L87.4,81l-0.6,1.2l0.7,1.1l0.7,1.1l1.3,0l0,0l1.3,0l0.6-1.2l0.6-1.2l-0.7-1.1l0,0
		L90.7,79.7L90.7,79.7z M146,71.7l-1.3,0l-1.3,0l-0.6,1.2l-0.6,1.2l0.7,1.1l0.7,1.1l1.3,0l1.3,0l0.6-1.2l0.6-1.2l-0.7-1.1L146,71.7
		L146,71.7z M132.9,70.1l-1.3,0l-1.3,0l-0.6,1.2l-0.6,1.2l0.7,1.1l0.7,1.1l1.3,0l0,0l1.3,0l0.6-1.2l0.6-1.2l-0.7-1.1l0,0L132.9,70.1
		L132.9,70.1z M123.4,70.4l-1.3,0l-1.3,0l-0.6,1.2l-0.6,1.2l0.7,1.1l0.7,1.1l1.3,0l0,0l1.3,0l0.6-1.2l0.6-1.2l-0.7-1.1l0,0
		L123.4,70.4L123.4,70.4z M110.1,73.2l0.7,1.1l0.7,1.1l1.3,0l0,0l1.3,0l0.6-1.2l0.6-1.2l-0.7-1.1l0,0l-0.7-1.1l-1.3,0l0,0l-1.3,0.1
		l-0.6,1.2L110.1,73.2L110.1,73.2z M104.6,71.1l-1.3,0l-1.3,0l-0.6,1.2l-0.6,1.2l0.7,1.1l0.7,1.1l1.3,0l0,0l1.3,0l0.6-1.2l0.6-1.2
		l-0.7-1.1l0,0L104.6,71.1L104.6,71.1z M95.2,71.4l-1.3,0l-1.3,0l-0.6,1.2l-0.6,1.2l0.7,1.1l0.7,1.1l1.3,0l0,0l1.3,0l0.6-1.2
		l0.6-1.2l-0.7-1.1l0,0L95.2,71.4L95.2,71.4z M137.3,61.7l-1.3,0.1l-1.3,0L134,63l-0.6,1.2l0.7,1.1l0.7,1.1l1.3,0l0,0l1.3,0l0.6-1.2
		l0.6-1.2l-0.7-1.1L137.3,61.7L137.3,61.7z M127.9,62.1l-1.3,0l-1.3,0l-0.6,1.2l-0.6,1.2l0.7,1.1l0.7,1.1l1.3,0l0,0l1.3,0l0.6-1.2
		l0.6-1.2l-0.7-1.1l0,0L127.9,62.1L127.9,62.1z M109,62.7l-1.3,0l-1.3,0l-0.6,1.2l-0.6,1.2l0.7,1.1l0.7,1.1l1.3,0l0,0l1.3,0l0.6-1.2
		l0.6-1.2l-0.7-1.1l0,0L109,62.7L109,62.7z M99.6,63.1l-1.3,0l-1.3,0l-0.6,1.2l-0.6,1.2l0.7,1.1l0.7,1.1l1.3,0l0,0l1.3,0l0.6-1.2
		l0.6-1.2l-0.7-1.1l0,0L99.6,63.1L99.6,63.1z M132.3,53.7l-1.3,0l-1.3,0L129,55l-0.6,1.2l0.7,1.1l0.7,1.1l1.3,0l0,0l1.3,0l0.6-1.2
		l0.6-1.2l-0.7-1.1l0,0L132.3,53.7L132.3,53.7z M122.9,54.1l-1.3,0.1l-1.3,0l-0.6,1.2l-0.6,1.2l0.7,1.1l0.7,1.1l1.3,0l0,0l1.3,0
		l0.6-1.2l0.6-1.2l-0.7-1.1l0,0L122.9,54.1L122.9,54.1z M104,54.7l-1.3,0l-1.3,0l-0.6,1.2l-0.6,1.2l0.7,1.1l0.7,1.1l1.3,0l0,0l1.3,0
		l0.6-1.2l0.6-1.2l-0.7-1.1l0,0L104,54.7L104,54.7z M138.1,44.2l-1.3,0l-1.3,0l-0.6,1.2l-0.6,1.2l0.7,1.1l0.7,1.1l1.3,0l1.3,0
		l0.6-1.2l0.6-1.2l-0.7-1.1L138.1,44.2L138.1,44.2z M127.3,45.7l-1.3,0l-1.3,0L124,47l-0.6,1.2l0.7,1.1l0.7,1.1l1.3,0l0,0l1.3,0
		l0.6-1.2l0.6-1.2l-0.7-1.1l0,0L127.3,45.7L127.3,45.7z M117.8,46.1l-1.3,0l-1.3,0l-0.6,1.2l-0.6,1.2l0.7,1.1l0.7,1.1l1.3,0l0,0
		l1.3,0l0.6-1.2l0.6-1.2l-0.7-1.1l0,0L117.8,46.1L117.8,46.1z M108.4,46.4l-1.3,0.1l-1.3,0l-0.6,1.2l-0.6,1.2l0.7,1.1l0.7,1.1l1.3,0
		l0,0l1.3,0l0.6-1.2l0.6-1.2l-0.7-1.1l0,0L108.4,46.4L108.4,46.4z M122.3,37.7l-1.3,0l-1.3,0l-0.6,1.2l-0.6,1.2l0.7,1.1l0.7,1.1
		l1.3,0l0,0l1.3,0l0.6-1.1l0-0.1l0.1-0.1l0.6-1.1l-0.7-1.1L122.3,37.7L122.3,37.7z M112.8,38.1l-1.3,0l-1.3,0l-0.6,1.2l-0.6,1.2
		l0.7,1.1l0.7,1.1l1.3,0l0,0l1.3,0l0.6-1.2l0.6-1.2l-0.7-1.1l0,0L112.8,38.1L112.8,38.1z M145.8,92.1l-1.3,0l-1.3,0l-0.6,1.2
		l-0.6,1.2l0.7,1.1l0.7,1.1l1.3,0l1.3,0l0.6-1.2l0.6-1.2l-0.7-1.1L145.8,92.1L145.8,92.1z M133.6,91.8l-1.3,0l0,0l-1.3,0l-0.6,1.2
		l-0.6,1.2l0.7,1.1l0,0l0.7,1.1l1.3,0l1.4,0l0.6-1.2l0.6-1.2l-0.7-1.2L133.6,91.8L133.6,91.8z M114.8,92.5l-1.3,0l0,0l-1.3,0
		l-0.6,1.2l-0.6,1.2l0.7,1.1l0,0l0.7,1.1l1.3,0l1.3,0l0.6-1.2l0.6-1.2l-0.7-1.1l0,0L114.8,92.5L114.8,92.5z M105.4,92.8l-1.3,0l0,0
		l-1.3,0l-0.6,1.2l-0.6,1.2l0.7,1.1l0,0l0.7,1.1l1.3,0l1.4,0l0.6-1.2l0.6-1.2l-0.7-1.2L105.4,92.8L105.4,92.8z M95.9,93.2l-1.3,0
		l0,0l-1.3,0l-0.6,1.2L92,95.6l0.7,1.1l0,0l0.7,1.1l1.3,0l1.4,0l0.6-1.2l0.6-1.2l-0.7-1.2L95.9,93.2L95.9,93.2z M86.5,93.5l-1.3,0
		l0,0l-1.3,0l-0.6,1.2L82.6,96l0.7,1.1l0,0l0.7,1.1l1.3,0l1.4-0.1l0.6-1.2l0.6-1.2l-0.7-1.1l0,0L86.5,93.5L86.5,93.5z M138.1,83.5
		l-1.3,0l-1.3,0.1l-0.6,1.2l-0.6,1.2l0.7,1.1l0,0l0.7,1.1l1.3,0l1.4,0l0.6-1.2l0.6-1.2l-0.7-1.1L138.1,83.5L138.1,83.5z M128.6,83.8
		l-1.3,0l0,0l-1.3,0l-0.6,1.2l-0.6,1.2l0.7,1.1l0,0l0.7,1.1l1.3-0.1l1.4,0l0.6-1.2l0.6-1.2l-0.7-1.2L128.6,83.8L128.6,83.8z
		 M119.2,84.2l-1.3,0l0,0l-1.3,0l-0.6,1.2l-0.6,1.2l0.7,1.1l0,0l0.7,1.1l1.3,0l0,0l1.3,0l0.6-1.2l0.6-1.2l-0.7-1.2L119.2,84.2
		L119.2,84.2z M109.8,84.5l-1.3,0l0,0l-1.3,0l-0.6,1.2l-0.6,1.2l0.7,1.1l0,0l0.7,1.1l1.3,0l1.4,0l0.6-1.2l0.6-1.2l-0.7-1.2
		L109.8,84.5L109.8,84.5z M100.4,84.8L99,84.9l0,0l-1.3,0L97,86.1l-0.6,1.2l0.7,1.1l0,0l0.7,1.1l1.3,0l1.4,0l0.6-1.2l0.6-1.2
		l-0.7-1.2L100.4,84.8L100.4,84.8z M90.9,85.2l-1.3,0l0,0l-1.3,0l-0.6,1.2L87,87.6l0.7,1.1l0,0l0.7,1.1l1.3,0l0,0l1.3,0l0.6-1.2
		l0.6-1.2l-0.7-1.2L90.9,85.2L90.9,85.2z M133,75.5l-1.3,0l0,0l-1.3,0l-0.6,1.2l-0.6,1.2l0.7,1.1l0,0l0.7,1.1l1.3,0l1.4,0l0.6-1.2
		l0.6-1.2l-0.7-1.2L133,75.5L133,75.5z M123.6,75.8l-1.3,0l0,0l-1.3,0.1l-0.6,1.2l-0.6,1.2l0.7,1.1l0,0l0.7,1.1l1.3,0l1.4,0l0.6-1.2
		l0.6-1.2l-0.7-1.2L123.6,75.8L123.6,75.8z M114.2,76.2l-1.3,0l0,0l-1.3,0l-0.6,1.2l-0.6,1.2l0.7,1.1l0,0l0.7,1.1l1.3-0.1l1.4,0
		l0.6-1.2l0.6-1.2l-0.7-1.2L114.2,76.2L114.2,76.2z M104.8,76.5l-1.3,0l0,0l-1.3,0l-0.6,1.2l-0.6,1.2l0.7,1.1l0,0l0.7,1.1l1.3,0
		l1.4-0.1l0.6-1.2l0.6-1.2l-0.7-1.2L104.8,76.5L104.8,76.5z M95.3,76.8l-1.3,0l0,0l-1.3,0L92,78.1l-0.6,1.2l0.7,1.1l0,0l0.7,1.1
		l1.3,0l1.4,0l0.6-1.2l0.6-1.2L96.1,78L95.3,76.8L95.3,76.8z M137.5,67.2l-1.3,0l0,0l-1.3,0l-0.6,1.2l-0.6,1.2l0.7,1.1l0,0l0.7,1.1
		l1.3,0l1.4,0l0.6-1.2l0.6-1.2l-0.7-1.2L137.5,67.2L137.5,67.2z M128,67.5l-1.3,0l0,0l-1.3,0l-0.6,1.2l-0.6,1.2l0.7,1.1l0,0l0.7,1.1
		l1.3,0l1.4,0l0.6-1.2l0.6-1.2l-0.7-1.2L128,67.5L128,67.5z M114.7,70.3l0.7,1.1l0,0l0.7,1.1l1.3,0l1.4,0l0.6-1.2l0.6-1.2l-0.7-1.2
		l-0.7-1.1l-1.3,0l0,0l-1.3,0l-0.6,1.2L114.7,70.3L114.7,70.3z M109.2,68.2l-1.3,0.1l0,0l-1.3,0l-0.6,1.2l-0.6,1.2l0.7,1.1l0,0
		l0.7,1.1l1.3,0l1.4,0l0.6-1.2l0.6-1.2l-0.7-1.1l0,0L109.2,68.2L109.2,68.2z M99.8,68.5l-1.3,0l0,0l-1.3,0l-0.6,1.2L95.8,71l0.7,1.1
		l0,0l0.7,1.1l1.3-0.1l1.4,0l0.6-1.2l0.6-1.2l-0.7-1.2L99.8,68.5L99.8,68.5z M143.6,57.9l-1.3,0l-1.3,0l-0.6,1.2l-0.6,1.2l0.7,1.1
		l0.7,1.1l1.3,0l1.3,0l0.6-1.2l0.6-1.2l-0.7-1.1L143.6,57.9L143.6,57.9z M129.8,59.3l-0.6,1.2l-0.6,1.2l0.7,1.1l0,0l0.7,1.1l1.3,0
		l1.4-0.1l0.6-1.2l0.6-1.2l-0.7-1.2l-0.7-1.1l-1.3,0l0,0L129.8,59.3L129.8,59.3z M120.4,59.6l-0.6,1.2l-0.6,1.2l0.7,1.1l0,0l0.7,1.1
		l1.3,0l1.4,0l0.6-1.2l0.6-1.2l-0.7-1.2l-0.7-1.1l-1.3,0l0,0L120.4,59.6L120.4,59.6z M110.9,59.9l-0.6,1.2l-0.6,1.2l0.7,1.1l0,0
		l0.7,1.1l1.3,0l0,0l1.3-0.1l0.6-1.2l0.6-1.2l-0.7-1.2l-0.7-1.1l-1.3,0l0,0L110.9,59.9L110.9,59.9z M101.5,60.3l-0.6,1.2l-0.6,1.2
		l0.7,1.1l0,0l0.7,1.1l1.3,0l1.4,0l0.6-1.2l0.6-1.2l-0.7-1.2l-0.7-1.1l-1.3,0l0,0L101.5,60.3L101.5,60.3z M136.9,50.8l-1.3,0l-1.3,0
		l-0.6,1.2l-0.6,1.2l0.7,1.1l0,0l0.7,1.1l1.3,0l1.4,0l0.6-1.2l0.6-1.2l-0.7-1.1L136.9,50.8L136.9,50.8z M124.8,51.3l-0.6,1.2
		l-0.6,1.2l0.7,1.1l0,0l0.7,1.1l1.3,0l1.4,0l0.6-1.2l0.6-1.2l-0.7-1.2l-0.7-1.1l-1.3,0l0,0L124.8,51.3L124.8,51.3z M115.4,51.6
		l-0.6,1.2l-0.6,1.2l0.7,1.1l0,0l0.7,1.1l1.3,0l1.4-0.1l0.6-1.2l0.6-1.2l-0.7-1.2l-0.7-1.1l-1.3,0l0,0L115.4,51.6L115.4,51.6z
		 M105.9,51.9l-0.6,1.2l-0.6,1.2l0.7,1.1l0,0l0.7,1.1l1.3-0.1l1.4,0l0.6-1.2l0.6-1.2l-0.7-1.2l-0.7-1.1l-1.3,0l0,0L105.9,51.9
		L105.9,51.9z M131.9,42.8l-1.3,0.1l-1.3,0l-0.6,1.1l-0.1,0.1l0,0.1l-0.6,1.1l0.7,1.1l0,0l0.7,1.1l1.3,0l1.4,0l0.6-1.2l0.6-1.2
		l-0.7-1.1L131.9,42.8L131.9,42.8z M119.8,43.3l-0.6,1.2l-0.6,1.2l0.7,1.1l0,0l0.7,1.1l1.3,0l1.4,0l0.6-1.2l0.6-1.2l-0.7-1.1
		l-0.7-1.1l-1.3,0l0,0L119.8,43.3L119.8,43.3z M110.3,43.6l-0.6,1.2l-0.6,1.2l0.7,1.1l0,0l0.7,1.1l1.3,0l1.4,0l0.6-1.2l0.6-1.2
		l-0.7-1.2l-0.7-1.1l-1.3,0l0,0L110.3,43.6L110.3,43.6z M125.9,30.8l-1.3,0l-1.3,0l-0.6,1.2l-0.6,1.2l0.7,1.1l0.7,1.1l1.3,0l1.3,0
		l0.6-1.2l0.6-1.2l-0.7-1.1L125.9,30.8L125.9,30.8z M117.3,29.7l-1.3,0l-1.3,0l-0.6,1.2l-0.6,1.2l0.7,1.1l0.7,1.1l1.3,0l0,0l1.3,0
		l0.6-1.2l0.6-1.2l-0.7-1.1L117.3,29.7L117.3,29.7z M114.8,35.3l-0.6,1.2l-0.6,1.2l0.7,1.1l0,0l0.7,1.1l1.3-0.1l1.4,0l0.6-1.2
		l0.6-1.2l-0.7-1.1l-0.7-1.1l-1.3,0l0,0L114.8,35.3L114.8,35.3z M77.4,99.5l-0.1-0.2l0,0l-1.3,0.1l-1.3,0l-0.1,0.1 M81.7,91l-1.3,0
		l-1.3,0l-0.6,1.2l-0.6,1.2l0.7,1.1l0.7,1.1l1.3,0l1.3,0l0.6-1.2l0.6-1.2l-0.7-1.1L81.7,91L81.7,91z M86.1,82.6l-1.3,0l-1.3,0
		l-0.6,1.2l-0.6,1.2l0.7,1.1l0.7,1.1l1.3,0l1.3,0l0.6-1.2l0.6-1.2l-0.7-1.1L86.1,82.6L86.1,82.6z M90.5,74.3l-1.3,0.1l-1.3,0
		l-0.6,1.2l-0.6,1.2l0.7,1.1L88,79l1.3,0l1.3,0l0.6-1.2l0.6-1.2l-0.7-1.1L90.5,74.3L90.5,74.3z M95,66l-1.3,0l-1.3,0l-0.6,1.2
		L91,68.4l0.7,1.1l0.7,1.1l1.3-0.1l1.3,0l0.6-1.2l0.6-1.2l-0.7-1.1L95,66L95,66z M99.4,57.6l-1.3,0l-1.3,0l-0.6,1.2l-0.6,1.2
		l0.7,1.1l0.7,1.1l1.3,0l1.3,0l0.6-1.2l0.6-1.2l-0.7-1.1L99.4,57.6L99.4,57.6z M103.8,49.3l-1.3,0l-1.3,0l-0.6,1.2l-0.6,1.2l0.7,1.1
		l0.7,1.1l1.3,0l1.3,0l0.6-1.2l0.6-1.2l-0.7-1.1L103.8,49.3L103.8,49.3z M108.2,41l-1.3,0l-1.3,0l-0.6,1.2l-0.6,1.2l0.7,1.1l0.7,1.1
		l1.3,0l1.3,0l0.6-1.2l0.6-1.2l-0.7-1.1L108.2,41L108.2,41z M73.6,99.5l0.3-0.5l-0.7-1.1l0,0l-0.7-1.1l0,0l-1.3,0l-1.3,0L69.2,98
		l-0.6,1.2l0.2,0.3 M76.9,88.4l-1.3,0l-1.3,0l-0.6,1.2l-0.6,1.2l0.7,1.1l0.7,1.1l1.3,0l0,0l1.3,0l0.6-1.2l0.6-1.2l-0.7-1.1l0,0
		L76.9,88.4L76.9,88.4z M81.3,80.1l-1.3,0l-1.3,0L78,81.4l-0.6,1.2l0.7,1.1l0.7,1.1l1.3,0l0,0l1.3,0l0.6-1.2l0.6-1.2L82,81.2l0,0
		L81.3,80.1L81.3,80.1z M85.7,71.7l-1.3,0l-1.3,0L82.4,73l-0.6,1.2l0.7,1.1l0.7,1.1l1.3,0l0,0l1.3,0l0.6-1.2l0.6-1.2l-0.7-1.1l0,0
		L85.7,71.7L85.7,71.7z M90.2,63.4l-1.3,0l-1.3,0l-0.6,1.2l-0.6,1.2l0.7,1.1l0.7,1.1l1.3-0.1l0,0l1.3,0l0.6-1.2l0.6-1.2l-0.7-1.1
		l0,0L90.2,63.4L90.2,63.4z M94.6,55.1l-1.3,0l-1.3,0l-0.6,1.2l-0.6,1.2l0.7,1.1l0.7,1.1l1.3,0l0,0l1.3,0l0.6-1.2l0.6-1.2l-0.7-1.1
		l0,0L94.6,55.1L94.6,55.1z M99,46.7l-1.3,0l-1.3,0L95.7,48L95,49.2l0.7,1.1l0.7,1.1l1.3,0l0,0l1.3,0l0.6-1.2l0.6-1.2l-0.7-1.1l0,0
		L99,46.7L99,46.7z M103.4,38.4l-1.3,0l-1.3,0l-0.6,1.2l-0.6,1.2l0.7,1.1l0.7,1.1l1.3,0l0,0l1.3,0l0.6-1.2l0.6-1.2l-0.7-1.1l0,0
		L103.4,38.4L103.4,38.4z M74.4,93.9l-0.6,1.2l-0.6,1.2l0.7,1.1l0,0l0.7,1.1l1.3,0l1.4,0l0.6-1.2l0.6-1.2L77.8,95l-0.7-1.1l-1.3,0
		l0,0L74.4,93.9L74.4,93.9z M78.8,85.6l-0.6,1.2L77.6,88l0.7,1.1l0,0l0.7,1.1l1.3,0l1.4,0l0.6-1.2l0.6-1.2l-0.7-1.2l-0.7-1.1l-1.3,0
		l0,0L78.8,85.6L78.8,85.6z M83.2,77.3l-0.6,1.2L82,79.7l0.7,1.1l0,0l0.7,1.1l1.3,0l1.4,0l0.6-1.2l0.6-1.2l-0.7-1.2l-0.7-1.1l-1.3,0
		l0,0L83.2,77.3L83.2,77.3z M87.7,68.9L87,70.1l-0.6,1.2l0.7,1.1l0,0l0.7,1.1l1.3,0l1.4,0l0.6-1.2l0.6-1.2L91,70l-0.7-1.1l-1.3,0
		l0,0L87.7,68.9L87.7,68.9z M92.1,60.6l-0.6,1.2L90.8,63l0.7,1.1l0,0l0.7,1.1l1.3,0l1.4,0l0.6-1.2l0.6-1.2l-0.7-1.2l-0.7-1.1l-1.3,0
		l0,0L92.1,60.6L92.1,60.6z M96.5,52.3l-0.6,1.2l-0.6,1.2l0.7,1.1l0,0l0.7,1.1l1.3,0l1.4,0l0.6-1.2l0.6-1.2l-0.7-1.2l-0.7-1.1
		l-1.3,0l0,0L96.5,52.3L96.5,52.3z M100.9,44l-0.6,1.2l-0.6,1.2l0.7,1.1l0,0l0.7,1.1l1.3,0l1.4,0l0.6-1.2l0.6-1.2l-0.7-1.2l-0.7-1.1
		l-1.3,0l0,0L100.9,44L100.9,44z M108.7,35.1l0.7,1.1l0.7,1.1l1.3,0l1.3,0l0.6-1.2l0.6-1.2l-0.7-1.1l-0.7-1.1l-1.3,0l-1.3,0
		l-0.6,1.2L108.7,35.1L108.7,35.1z M107.8,30.1l-1.3,0.1l-1.3,0l-0.6,1.2l-0.6,1.2l0.7,1.1l0.7,1.1l1.3,0l0,0l1.3,0l0.6-1.2l0.6-1.2
		l-0.7-1.1L107.8,30.1L107.8,30.1z"/>
</g>
<path class="st1" d="M62,99.5l33.4-62.9l0,0c1.9-3.5,2.4-7.2,1.9-10.4c-0.3-2.1-1.1-3.9-2.2-5.3c-1.1-1.3-2.5-2.3-4.3-2.6
	c-1.8-0.4-4-0.1-6.4,1.1l-0.6,0.3l-0.6-0.4c-0.5-0.3-1.1-0.7-1.6-0.9c-3.7-2.1-8-3.5-11.9-3.5c-3.7,0-7.1,1.5-9.3,5
	c-0.2,0.2-0.3,0.5-0.4,0.6l-0.3,0.5L59,21.2c-4.3,0.9-7.3,2.3-9.1,4.2c-1.7,1.8-2.4,4.1-2.2,6.8l0.1,1.6l-1.6-0.2
	c-5.2-0.6-9.1,0.1-11.7,2.1c-2.6,1.9-4.1,5.1-4.6,9.4l-0.1,0.8L29.1,46c-5.2,1.9-9.2,4.7-11.5,8.7c-2.3,4-3,9.2-1.6,16.1l0.1,0.7
	L15.6,72c-3,2.8-4.3,5.6-4.1,8.2c0.2,2.7,1.7,5.3,4.4,8l0.9,0.9L16,89.9l-0.2,0.2c-0.3,0.3-0.6,0.7-1,1.2c-1.3,1.7-2.9,4.5-2.1,8.1
	H9.8c-0.8-4.3,1.3-7.7,2.9-9.7c0.2-0.2,0.4-0.5,0.6-0.7c-2.6-2.8-4.1-5.8-4.3-8.8c-0.2-3.2,1.1-6.5,4.4-9.7
	c-1.4-7.2-0.5-12.8,2-17.2c2.5-4.3,6.7-7.4,12.1-9.5c0.7-4.6,2.5-8.1,5.5-10.3c2.9-2.2,6.9-3.1,12.1-2.7c0.1-2.8,1-5.3,3-7.3
	c2.1-2.2,5.4-3.8,9.9-4.8c0-0.1,0.1-0.2,0.2-0.2c2.8-4.4,7-6.1,11.5-6.2c4.4-0.1,9.1,1.5,13.2,3.8c0.4,0.2,0.7,0.4,1.1,0.6
	c2.7-1.2,5.2-1.5,7.4-1c2.3,0.5,4.3,1.7,5.7,3.5c1.4,1.7,2.4,4,2.8,6.5l0,0c0.6,3.7,0,8-2.1,12L64.9,99.5H62z"/>
<path class="st1" d="M28.1,46.3l-8.5,16.1l-2.3-1.2l8.5-16.1L28.1,46.3L28.1,46.3z M92.9,23.1L79.8,47.8l-0.3,0.5l-0.5,0.2
	l-19.2,5.9L49.3,74.2l-0.1,0.3l-2.3-1.2L47,73l10.8-20.4l0.3-0.5l0.5-0.2l19.2-5.9l12.9-24.2L92.9,23.1L92.9,23.1z M98.4,23.5
	L83,52.6l-0.2,0.5l-0.5,0.2l-19.2,5.9L52.5,79l-0.1,0.3l-2.3-1.2l0.1-0.3L61,57.4l0.3-0.5l0.5-0.2L81,50.9l15.2-28.6L98.4,23.5
	L98.4,23.5z M38.7,99.5L45,87.6l-5.9-19.2L39,68l0.2-0.5l11.2-21.2l2.3,1.2l0,0l-11,20.7l5.9,19.2l0.2,0.5l-0.3,0.5l-5.9,11.1
	 M33,99.5L39.6,87l-5.9-19.2l-0.2-0.5l0.3-0.5l10.7-20.2l2.3,1.2l0,0L36.4,67.5l5.9,19.2l0.2,0.5l-0.3,0.5l-6.3,11.8L33,99.5z
	 M60.6,42.5l11.8-3.6L84,17l2.3,1.2L74.4,40.6l-0.2,0.5l-0.5,0.2L61.3,45L60.6,42.5L60.6,42.5z M80.9,16.7L70.5,36.3l-2.3-1.2
	l10.4-19.5L80.9,16.7L80.9,16.7z M72.8,14.4L61.7,35.4l-0.2,0.5L60.9,36l-19.2,5.9L35.9,53L31,62.1l-2.3-1.2l4.8-9.1l6.1-11.5
	l0.3-0.5l0.5-0.2l19.2-5.9l10.9-20.6L72.8,14.4L72.8,14.4z M45.9,99.5l0.3-0.5l0.3-0.5l0.5-0.2l9.7-3l10.9-20.6l2.3,1.2l0,0
	L58.6,97.1l-0.3,0.5l-0.5,0.2l-5.7,1.8 M81.9,66.6L67,71.2L56.1,91.8l-0.3,0.5l-0.5,0.2l-6.4,2l-0.8-2.5l5.9-1.8l10.9-20.6l0.3-0.5
	l0.5-0.2l15.5-4.7L81.9,66.6L81.9,66.6z M24.7,99.5l1.6-2.9l-5.9-19.2l2.5-0.8l0,0l6,19.7l0.2,0.5l-0.3,0.5l-1.2,2.2 M64.4,16.3
	l-7.5,14.2l-0.3,0.5l-0.5,0.2l-8.6,2.7l-0.8-2.5l8.1-2.5l7.3-13.7L64.4,16.3L64.4,16.3z M32.2,93l-9.6-31.3l-0.2-0.5l0.3-0.5
	L35,37.4l2.3,1.2L25.2,61.4l9.4,30.8L32.2,93L32.2,93z M19.4,99.5l1.8-3.5l-5.9-19.2l-0.2-0.5l0.3-0.5l5.2-9.8l2.3,1.2l0,0L18,76.6
	l5.9,19.2l0.2,0.5l-0.2,0.5l-1.5,2.7 M97,39.1L85.9,59.9l-0.2,0.5l-0.5,0.2l-11.6,3.6l-9.9,3L53.1,87l-0.1,0.3l-2.3-1.2l0.1-0.3
	l10.8-20.4l0.2-0.5l0.5-0.2l10.4-3.2l11.1-3.4l10.8-20.4L97,39.1L97,39.1z M62,99.5l0.2-0.4l4.5-8.4l2.3,1.2l0,0l-4,7.5H62z"/>
<g>
	<path class="st2" d="M176.1,68.8c-5.8,0-9.5-1.6-13-5.2l2.1-2.1c3.5,3.5,6.4,4.6,11.1,4.6c6.2,0,10.1-3,10.1-8.1
		c0-2.4-0.7-4.2-2.1-5.5c-1.4-1.2-2.5-1.6-5.7-2.1l-4.6-0.7c-3-0.4-5.3-1.3-7-2.8c-2-1.7-3.1-4.1-3.1-7.3c0-6.5,4.6-10.7,12.2-10.7
		c4.8,0,7.9,1.3,11.3,4.2l-1.9,1.9c-2.3-2.2-4.9-3.6-9.5-3.6c-5.7,0-9.1,3.1-9.1,8.1c0,2.3,0.6,4,2,5.2s3.4,1.9,5.6,2.3l4.6,0.7
		c3.6,0.6,5.2,1.2,7,2.7c2.1,1.8,3.4,4.3,3.4,7.5C189.3,64.6,184.3,68.8,176.1,68.8z"/>
	<path class="st2" d="M197,68.5V29.3h23.8V32H200v15.5h17.7v2.6H200v15.8h20.8v2.6H197z"/>
	<path class="st2" d="M228.2,68.5V29.3h3v39.2H228.2z"/>
	<path class="st2" d="M251.4,68.8c-5.8,0-9.5-1.6-13-5.2l2.1-2.1c3.5,3.5,6.4,4.6,11.1,4.6c6.2,0,10.1-3,10.1-8.1
		c0-2.4-0.7-4.2-2.1-5.5c-1.4-1.2-2.5-1.6-5.7-2.1l-4.6-0.7c-3-0.4-5.3-1.3-7-2.8c-2-1.7-3.1-4.1-3.1-7.3c0-6.5,4.6-10.7,12.2-10.7
		c4.8,0,7.9,1.3,11.3,4.2l-1.9,1.9c-2.3-2.2-4.9-3.6-9.5-3.6c-5.7,0-9.1,3.1-9.1,8.1c0,2.3,0.6,4,2,5.2c1.4,1.2,3.4,1.9,5.6,2.3
		l4.6,0.7c3.6,0.6,5.2,1.2,7,2.7c2.1,1.8,3.4,4.3,3.4,7.5C264.6,64.6,259.6,68.8,251.4,68.8z"/>
	<path class="st2" d="M302.2,68.5V36.2L290.3,63h-3l-12.1-26.8v32.3h-3V29.3h3l13.6,30.2l13.3-30.2h3v39.2H302.2z"/>
	<path class="st2" d="M315.6,68.5V29.3h3v39.2H315.6z"/>
	<path class="st2" d="M340.9,68.8c-3.9,0-7.2-1.4-9.5-3.7c-3.6-3.6-3.9-6.7-3.9-16.2c0-9.5,0.3-12.5,3.9-16.2
		c2.3-2.3,5.6-3.7,9.5-3.7c7,0,12,4.4,13.3,11.4h-3c-1.2-5.4-5-8.8-10.3-8.8c-2.9,0-5.4,1-7.4,3c-2.8,2.8-3,6-3,14.2
		c0,8.2,0.2,11.4,3,14.2c2,2,4.6,3,7.4,3c5.3,0,9.2-3.4,10.4-8.8h2.9C352.9,64.4,347.9,68.8,340.9,68.8z"/>
	<path class="st2" d="M398.1,64.9c-2.4,2.4-5.7,3.6-9.8,3.6h-13.1V29.3h13.1c4.1,0,7.4,1.2,9.8,3.6c3.7,3.7,3.8,10.2,3.8,16
		C401.9,54.7,401.9,61.2,398.1,64.9z M396,35c-2.3-2.4-5.3-3-8.4-3h-9.5v33.9h9.5c3.1,0,6.2-0.7,8.4-3c2.9-3.1,2.9-8.7,2.9-13.9
		C398.9,43.7,398.9,38.1,396,35z"/>
	<path class="st2" d="M432.2,65.1c-2.3,2.3-5.6,3.7-9.5,3.7s-7.2-1.4-9.5-3.7c-3.6-3.6-3.9-6.7-3.9-16.2c0-9.5,0.3-12.5,3.9-16.2
		c2.3-2.3,5.6-3.7,9.5-3.7s7.2,1.4,9.5,3.7c3.6,3.6,3.9,6.7,3.9,16.2C436.1,58.4,435.8,61.4,432.2,65.1z M430.1,34.7
		c-2-2-4.6-3-7.4-3s-5.4,1-7.4,3c-2.8,2.8-3,6-3,14.2c0,8.2,0.2,11.4,3,14.2c2,2,4.6,3,7.4,3s5.4-1,7.4-3c2.8-2.8,3-6,3-14.2
		C433.2,40.7,432.9,37.5,430.1,34.7z"/>
	<path class="st2" d="M456.4,68.8c-3.9,0-7.2-1.4-9.5-3.7c-3.6-3.6-3.9-6.7-3.9-16.2c0-9.5,0.3-12.5,3.9-16.2
		c2.3-2.3,5.6-3.7,9.5-3.7c7,0,12,4.4,13.3,11.4h-3c-1.2-5.4-5-8.8-10.3-8.8c-2.9,0-5.4,1-7.4,3c-2.8,2.8-3,6-3,14.2
		c0,8.2,0.2,11.4,3,14.2c2,2,4.6,3,7.4,3c5.3,0,9.2-3.4,10.4-8.8h2.9C468.4,64.4,463.3,68.8,456.4,68.8z"/>
	<path class="st2" d="M500.1,68.8c-5.9,0-10.1-1.4-13.9-5.2l3.9-3.9c2.9,2.9,6.1,3.8,10.1,3.8c5.2,0,8.1-2.2,8.1-6
		c0-1.8-0.4-3.1-1.5-4.1c-1-0.9-2.3-1.4-4.3-1.6l-4.6-0.7c-3.2-0.5-5.7-1.5-7.4-3.1c-1.9-1.8-2.9-4.3-2.9-7.5
		c0-6.8,4.9-11.4,13.1-11.4c5.2,0,8.8,1.3,12.2,4.5l-3.7,3.7c-2.4-2.3-5.3-3-8.6-3c-4.6,0-7.1,2.5-7.1,6.1c0,1.4,0.4,2.8,1.4,3.6
		c1,0.9,2.1,1.4,4.3,1.8l4.7,0.7c3.6,0.5,5.6,1.4,7.3,2.9c2.1,1.9,3.2,4.6,3.2,8C514.2,64.5,508.3,68.8,500.1,68.8z"/>
	<path class="st2" d="M520.5,68.5V29.3h25v5.3h-19.1v11.4h16.3v5.3h-16.3v11.8h19.1v5.3H520.5z"/>
	<path class="st2" d="M574.5,68.5l-2.7-7.9h-15.5l-2.7,7.9h-6.3l14.4-39.2h4.8l14.4,39.2H574.5z M564.2,38.2l-6.1,17.4h12
		L564.2,38.2z"/>
	<path class="st2" d="M606.3,68.5L598.1,52h-7.4v16.5h-5.9V29.3h15.2c7.4,0,12.2,4.8,12.2,11.4c0,5.6-3.4,9.2-7.8,10.4l9,17.3H606.3
		z M599.5,34.7h-8.8v12.3h8.8c4,0,6.7-2.3,6.7-6.1C606.1,37,603.4,34.7,599.5,34.7z"/>
	<path class="st2" d="M631.5,68.8c-4.3,0-7.6-1.4-10.1-4c-3.8-3.8-4-7.8-4-15.9c0-8.2,0.2-12.1,4-15.9c2.5-2.5,5.8-4,10.1-4
		c7.2,0,12.6,4.3,14,12h-6c-0.9-4-3.6-6.8-7.9-6.8c-2.4,0-4.3,0.9-5.8,2.4c-2,2.1-2.4,4.5-2.4,12.2c0,7.8,0.4,10.1,2.4,12.2
		c1.4,1.5,3.4,2.4,5.8,2.4c4.3,0,7.1-2.8,8-6.8h5.9C644.1,64.5,638.6,68.8,631.5,68.8z"/>
	<path class="st2" d="M673.6,68.5V51.4h-15.9v17.1h-5.9V29.3h5.9V46h15.9V29.3h5.9v39.2H673.6z"/>
</g>
</svg>
